<?xml version="1.0" encoding="UTF-8"?>
<!-- Generator: visioncortex VTracer 0.6.5 -->
<svg version="1.1" xmlns="http://www.w3.org/2000/svg" width="32" height="32">
<path d="M0 0 C10.56 0 21.12 0 32 0 C32 10.56 32 21.12 32 32 C21.44 32 10.88 32 0 32 C0 21.44 0 10.88 0 0 Z " fill="#EEB72A" transform="translate(0,0)"/>
<path d="M0 0 C6.4 -0.51 9.98 -0.12 15 4 C15.33 3.67 15.66 3.34 16 3 C16.66 3 17.32 3 18 3 C20.81 7.79 20.63 12.59 20 18 C17.7 22.86 14.84 25.67 10 28 C4.98 28.8 1.2 28.6 -3.38 26.31 C-5.98 24.01 -8.12 21.93 -10 19 C-9 16 -9 16 -8 14 C-7.65 12.67 -7.31 11.34 -7 10 C-7 10.66 -7 11.32 -7 12 C-6.34 12 -5.68 12 -5 12 C-5 12.99 -5 13.98 -5 15 C-4.34 15 -3.68 15 -3 15 C-2.67 14.34 -2.34 13.68 -2 13 C-1.34 13.33 -0.68 13.66 0 14 C0 12.02 0 10.04 0 8 C0.66 8 1.32 8 2 8 C2 10.31 2 12.62 2 15 C3.65 15 5.3 15 7 15 C7.33 13.02 7.66 11.04 8 9 C8.66 9.33 9.32 9.66 10 10 C9.67 11.32 9.34 12.64 9 14 C9.66 14.33 10.32 14.66 11 15 C11.33 14.34 11.66 13.68 12 13 C12 13.66 12 14.32 12 15 C12.66 14.67 13.32 14.34 14 14 C13.81 13.38 13.63 12.76 13.44 12.12 C13 10 13 10 14 8 C13.34 8 12.68 8 12 8 C11.67 8.66 11.34 9.32 11 10 C11 9.34 11 8.68 11 8 C9.35 8 7.7 8 6 8 C6 9.65 6 11.3 6 13 C5.67 13.16 5.67 13.16 4 14 C2.8 8.55 3.09 5.78 6 1 C3.69 1.33 1.38 1.66 -1 2 C-0.67 1.34 -0.34 0.68 0 0 Z " fill="#C75B07" transform="translate(11,3)"/>
<path d="M0 0 C3.96 0 7.92 0 12 0 C12 10.56 12 21.12 12 32 C1.44 32 -9.12 32 -20 32 C-20 27.71 -20 23.42 -20 19 C-19.34 19.99 -18.68 20.98 -18 22 C-12.14 29.55 -12.14 29.55 -6.63 30.34 C-0.91 30.43 2.56 30 7 26 C10.6 22.04 10.51 17.78 10.35 12.66 C9.85 8.85 8.64 6.78 6 4 C2.75 2.12 2.75 2.12 0 1 C0 0.67 0 0.34 0 0 Z " fill="#F8F4EF" transform="translate(20,0)"/>
<path d="M0 0 C2.79 1.45 4.67 2.53 5.9 5.49 C5.92 6.07 5.94 6.65 5.96 7.24 C5.63 7.41 5.63 7.41 3.96 8.24 C3.35 7.6 2.73 6.96 2.09 6.3 C-0.96 3.35 -2.53 3.12 -6.66 3.18 C-7.48 3.19 -8.29 3.2 -9.14 3.21 C-9.76 3.22 -10.39 3.23 -11.04 3.24 C-10.38 4.56 -9.72 5.88 -9.04 7.24 C-12.04 9.24 -12.04 9.24 -14.22 8.87 C-14.82 8.66 -15.42 8.45 -16.04 8.24 C-16.37 8.74 -16.37 8.74 -18.04 11.24 C-19.03 10.91 -20.02 10.58 -21.04 10.24 C-20.79 8.37 -20.79 8.37 -20.04 6.24 C-18.1 5.05 -18.1 5.05 -16.04 4.24 C-15.38 3.91 -14.72 3.58 -14.04 3.24 C-14.37 2.58 -14.7 1.92 -15.04 1.24 C-10.17 -1.19 -5.13 -1.91 0 0 Z " fill="#FBE365" transform="translate(22.03515625,0.7578125)"/>
<path d="M0 0 C2 1 2 1 3.75 2.5 C6.48 4.32 8.77 4.63 12 5 C12.66 3.35 13.32 1.7 14 0 C16.31 0.33 18.62 0.66 21 1 C20.94 3.31 20.94 3.31 20 6 C16.44 7.81 16.44 7.81 13 9 C13 9.33 13 9.66 13 10 C8.16 10.26 6.26 8.88 2.31 6.12 C1.55 5.42 0.79 4.72 0 4 C0 2.68 0 1.36 0 0 Z " fill="#E18B13" transform="translate(5,21)"/>
<path d="M0 0 C4.78 -0.38 8.15 -0.4 12.56 1.69 C15 4 15 4 15.38 6.75 C15.25 7.49 15.13 8.23 15 9 C14.01 8.67 13.02 8.34 12 8 C11.67 8.66 11.34 9.32 11 10 C11 9.34 11 8.68 11 8 C9.35 8 7.7 8 6 8 C6 9.65 6 11.3 6 13 C5.67 13.16 5.67 13.16 4 14 C2.8 8.55 3.09 5.78 6 1 C3.69 1.33 1.38 1.66 -1 2 C-0.67 1.34 -0.34 0.68 0 0 Z " fill="#C65E07" transform="translate(11,3)"/>
<path d="M0 0 C0.66 0 1.32 0 2 0 C4.81 4.79 4.63 9.59 4 15 C1.71 19.85 -1.25 22.52 -6 25 C-8.38 24.75 -8.38 24.75 -10 24 C-8.67 23.33 -8.67 23.33 -2 20 C-2 18.35 -2 16.7 -2 15 C-1.34 15 -0.68 15 0 15 C0 10.05 0 5.1 0 0 Z " fill="#C57013" transform="translate(27,6)"/>
<path d="M0 0 C2 2 2 2 2.2 3.95 C2.13 5.96 2.07 7.98 2 10 C-1.75 11.2 -5.33 11.1 -9.25 11.06 C-10.51 11.05 -11.78 11.04 -13.08 11.04 C-14.04 11.02 -15.01 11.01 -16 11 C-16.66 9.68 -17.32 8.36 -18 7 C-17.01 7.33 -16.02 7.66 -15 8 C-15 6.02 -15 4.04 -15 2 C-14.34 2 -13.68 2 -13 2 C-13 4.31 -13 6.62 -13 9 C-11.35 9 -9.7 9 -8 9 C-7.67 7.02 -7.34 5.04 -7 3 C-6.34 3.33 -5.68 3.66 -5 4 C-5.33 5.32 -5.66 6.64 -6 8 C-5.34 8.33 -4.68 8.66 -4 9 C-3.67 8.34 -3.34 7.68 -3 7 C-3 7.66 -3 8.32 -3 9 C-2.34 8.67 -1.68 8.34 -1 8 C-1.21 7.42 -1.41 6.84 -1.62 6.25 C-2.09 3.48 -1.43 2.35 0 0 Z " fill="#933D06" transform="translate(26,9)"/>
<path d="M0 0 C3.96 0 7.92 0 12 0 C12 6.93 12 13.86 12 21 C11.67 21 11.34 21 11 21 C10.99 20.64 10.99 20.64 10.92 18.8 C10.57 12.84 10.22 8.56 6 4 C2.75 2.12 2.75 2.12 0 1 C0 0.67 0 0.34 0 0 Z " fill="#FEFDFC" transform="translate(20,0)"/>
<path d="M0 0 C3.96 0 7.92 0 12 0 C10.68 0.99 9.36 1.98 8 3 C8 3.99 8 4.98 8 6 C6.02 6.33 4.04 6.66 2 7 C1.67 8.98 1.34 10.96 1 13 C0.67 13 0.34 13 0 13 C0 8.71 0 4.42 0 0 Z " fill="#FDFDF8" transform="translate(0,0)"/>
<path d="M0 0 C0.33 0.66 0.66 1.32 1 2 C1.66 2 2.32 2 3 2 C3 2.99 3 3.98 3 5 C3.66 5 4.32 5 5 5 C5 6.98 5 8.96 5 11 C4.01 10.01 3.02 9.02 2 8 C2.56 10.31 2.56 10.31 4 13 C6.28 14.35 8.48 15.11 11 16 C10.67 16.66 10.34 17.32 10 18 C4.78 16.88 2.36 14.65 -1 10.75 C-1.33 10.18 -1.66 9.6 -2 9 C-1 6 -1 6 0 4 C0 2.68 0 1.36 0 0 Z " fill="#AB4C04" transform="translate(3,13)"/>
<path d="M0 0 C0.66 0 1.32 0 2 0 C2.33 1.65 2.66 3.3 3 5 C3.33 3.35 3.66 1.7 4 0 C6.64 0 9.28 0 12 0 C11.98 0.78 11.96 1.57 11.94 2.38 C12 5 12 5 13 7 C10.69 7 8.38 7 6 7 C6 6.34 6 5.68 6 5 C5.01 5.99 4.02 6.98 3 8 C2.01 7.67 1.02 7.34 0 7 C0 4.69 0 2.38 0 0 Z " fill="#F9E4B1" transform="translate(13,11)"/>
<path d="M0 0 C1.32 0.33 2.64 0.66 4 1 C3.43 3.87 3.14 4.86 1 7 C0.29 8.98 -0.39 10.98 -1 13 C-1.33 13 -1.66 13 -2 13 C-3.2 7.55 -2.91 4.78 0 0 Z " fill="#D58013" transform="translate(17,4)"/>
<path d="M0 0 C2 2 2 2 2.2 3.95 C2.13 5.96 2.07 7.98 2 10 C0.19 10.62 0.19 10.62 -2 11 C-2.99 10.34 -3.98 9.68 -5 9 C-4.34 8.34 -3.68 7.68 -3 7 C-3 7.66 -3 8.32 -3 9 C-2.34 8.67 -1.68 8.34 -1 8 C-1.21 7.42 -1.41 6.84 -1.62 6.25 C-2.09 3.48 -1.43 2.35 0 0 Z " fill="#8C2F01" transform="translate(26,9)"/>
<path d="M0 0 C1.65 0 3.3 0 5 0 C5.69 2.49 6 4.38 6 7 C4 7 2 7 0 7 C0 4.69 0 2.38 0 0 Z " fill="#F5E4C0" transform="translate(6,11)"/>
<path d="M0 0 C1.98 0 3.96 0 6 0 C5.81 2.38 5.81 2.38 5 5 C2.44 6.31 2.44 6.31 0 7 C-0.93 3.99 -1.04 3.13 0 0 Z " fill="#FDEB7A" transform="translate(20,22)"/>
<path d="M0 0 C0.66 0.33 1.32 0.66 2 1 C2 2.32 2 3.64 2 5 C1.34 5 0.68 5 0 5 C-0.33 6.65 -0.66 8.3 -1 10 C-1.99 9.67 -2.98 9.34 -4 9 C-4.12 6.12 -4.12 6.12 -4 3 C-3.34 2.34 -2.68 1.68 -2 1 C-1.34 1.33 -0.68 1.66 0 2 C0 1.34 0 0.68 0 0 Z " fill="#DB9C33" transform="translate(4,10)"/>
<path d="M0 0 C6.65 2.46 6.65 2.46 8.44 5.19 C8.62 5.79 8.81 6.38 9 7 C8.34 7.66 7.68 8.32 7 9 C6.44 8.38 5.89 7.76 5.31 7.12 C2.93 4.94 1.04 4.01 -2 3 C-1.34 2.01 -0.68 1.02 0 0 Z " fill="#F3BB2C" transform="translate(19,0)"/>
<path d="M0 0 C3 1 3 1 4.19 3.06 C4.46 3.7 4.72 4.34 5 5 C3.68 4.67 2.36 4.34 1 4 C0.67 4.5 0.67 4.5 -1 7 C-1.99 6.67 -2.98 6.34 -4 6 C-3.69 4.12 -3.69 4.12 -3 2 C-2.01 1.34 -1.02 0.68 0 0 Z " fill="#FADB55" transform="translate(5,5)"/>
<path d="M0 0 C1.65 0 3.3 0 5 0 C3.68 0.33 2.36 0.66 1 1 C1 3.31 1 5.62 1 8 C-0.65 8 -2.3 8 -4 8 C-4 6 -4 6 -2 4 C-1.3 2.68 -0.63 1.35 0 0 Z " fill="#F5C12E" transform="translate(19,21)"/>
<path d="M0 0 C0.99 0.33 1.98 0.66 3 1 C3 1.99 3 2.98 3 4 C2.34 4.33 2.34 4.33 -1 6 C-1.33 4.68 -1.66 3.36 -2 2 C-1.34 2 -0.68 2 0 2 C0 1.34 0 0.68 0 0 Z " fill="#F1A823" transform="translate(27,19)"/>
</svg>
